<svg width="1024" height="1024" viewBox="0 0 1024 1024" fill="none" xmlns="http://www.w3.org/2000/svg" role="img" aria-labelledby="title desc">
  <title id="title">Logo ES Viry-Châtillon Football</title>
  <desc id="desc">Logo rond vert et jaune de l'Entente Sportive Viry-Châtillon Football.</desc>
  <defs>
    <radialGradient id="greenDepth" cx="50%" cy="45%" r="58%">
      <stop offset="0%" stop-color="#22a464"/>
      <stop offset="70%" stop-color="#109352"/>
      <stop offset="100%" stop-color="#04713d"/>
    </radialGradient>
    <radialGradient id="yellowDepth" cx="45%" cy="38%" r="68%">
      <stop offset="0%" stop-color="#fff533"/>
      <stop offset="72%" stop-color="#f7de16"/>
      <stop offset="100%" stop-color="#e8c900"/>
    </radialGradient>
    <filter id="softShadow" x="-20%" y="-20%" width="140%" height="140%">
      <feDropShadow dx="0" dy="18" stdDeviation="18" flood-color="#000000" flood-opacity="0.35"/>
    </filter>
    <path id="topCurve" d="M 177 466 A 335 335 0 0 1 847 466"/>
    <path id="bottomCurve" d="M 823 660 A 335 335 0 0 1 201 660"/>
    <clipPath id="ballClip">
      <circle cx="512" cy="438" r="205"/>
    </clipPath>
  </defs>

  <rect width="1024" height="1024" fill="transparent"/>
  <g filter="url(#softShadow)">
    <circle cx="512" cy="512" r="496" fill="url(#greenDepth)"/>
    <circle cx="512" cy="512" r="456" fill="#f7de16"/>
    <circle cx="512" cy="512" r="431" fill="#0d8f4f"/>
    <circle cx="512" cy="512" r="406" fill="#f7de16"/>
    <circle cx="512" cy="512" r="318" fill="white"/>
    <circle cx="512" cy="512" r="322" stroke="#04713d" stroke-width="8"/>

    <g font-family="Arial Black, Impact, sans-serif" font-weight="900" fill="#050505" letter-spacing="10">
      <text font-size="88">
        <textPath href="#topCurve" startOffset="50%" text-anchor="middle">VIRY-CHATILLON</textPath>
      </text>
      <text font-size="68">
        <textPath href="#bottomCurve" startOffset="50%" text-anchor="middle">ENTENTE SPORTIVE</textPath>
      </text>
    </g>

    <g clip-path="url(#ballClip)">
      <circle cx="512" cy="438" r="203" fill="#ffffff"/>
      <path d="M512 252l42 76 87-16-60 67 43 78-84-35-60 68 8-91-84-34 90-20 18-93Z" fill="#050505"/>
      <path d="M364 334l70-18-14 71-74 39-23-63 41-29Z" fill="#050505"/>
      <path d="M676 332l52 35-16 68-73-40-16-72 53 9Z" fill="#050505"/>
      <path d="M365 506l78-32 59 55-34 83-83-20-20-86Z" fill="#050505"/>
      <path d="M623 475l78 32-18 87-84 19-36-81 60-57Z" fill="#050505"/>
      <path d="M512 582l74 48-32 72h-108l-31-72 97-48Z" fill="#050505"/>
      <path d="M438 316l74 24 73-24M420 387l68 12M580 379l59 16M443 474l44-75M623 475l-43-76M502 529l61 3M468 612l44-30 44 30M384 592l-33 38M682 594l35 34" stroke="#050505" stroke-width="10" stroke-linecap="round"/>
    </g>

    <g opacity="0.42">
      <path d="M180 515c92-65 180-26 285 6 118 36 216 31 361-31 6 41-11 83-56 115-124 89-286 69-434 9-68-28-122-34-184-8 2-35 11-65 28-91Z" fill="#050505"/>
      <path d="M196 592c28 4 50 23 59 50 9 29 0 61-23 81l-16-18c15-13 21-34 15-53-6-18-22-31-41-34l6-26Z" fill="#050505"/>
      <path d="M794 592c-28 4-50 23-59 50-9 29 0 61 23 81l16-18c-15-13-21-34-15-53 6-18 22-31 41-34l-6-26Z" fill="#050505"/>
      <rect x="252" y="574" width="414" height="28" rx="14" fill="#050505"/>
      <rect x="662" y="549" width="100" height="70" rx="18" fill="#050505"/>
    </g>

    <circle cx="512" cy="512" r="496" stroke="#000000" stroke-opacity="0.55" stroke-width="10"/>
    <circle cx="512" cy="512" r="456" stroke="#fff35c" stroke-width="5"/>
  </g>
</svg>
